<?xml version="1.0" encoding="UTF-8"?>
<svg width="10px" height="28px" viewBox="0 0 10 28" version="1.1" xmlns="http://www.w3.org/2000/svg" xmlns:xlink="http://www.w3.org/1999/xlink">
    <!-- Generator: Sketch 42 (36781) - http://www.bohemiancoding.com/sketch -->
    <title>Combined Shape</title>
    <desc>Created with Sketch.</desc>
    <defs></defs>
    <g id="General-pages---✓" stroke="none" stroke-width="1" fill="none" fill-rule="evenodd">
        <g id="Lending-to-Visit" transform="translate(-160.000000, -275.000000)" fill="#F63839">
            <g id="Group">
                <path d="M169.898432,303.054204 C169.930026,303.081019 169.964558,303.095292 169.999926,303.095305 C169.864918,303.095276 169.736117,303.038156 169.645927,302.937707 C169.252043,302.499156 160,292.124341 160,285.000027 C160,279.486148 164.485874,275 170.000027,275 C168.555873,275 167.008255,276.121518 165.821676,277.932269 C164.63506,279.743047 163.8095,282.243069 163.8095,285.000027 C163.8095,288.562207 165.259187,292.937021 166.734655,296.476095 C168.210099,300.015118 169.711364,302.718486 169.814554,302.937762 C169.838171,302.987959 169.866834,303.027351 169.898439,303.05419 Z M170,303.095305 C170.000009,303.095305 170.000018,303.095305 170.000027,303.095305 C169.999994,303.095305 169.99996,303.095305 169.999926,303.095305 Z" id="Combined-Shape"></path>
            </g>
        </g>
    </g>
</svg>